<svg xmlns="http://www.w3.org/2000/svg" viewBox="0 0 283.46 133.68"><defs><style>.cls-1{fill:#fff;}</style></defs><title>Asset 4</title><g id="Layer_2" data-name="Layer 2"><g id="Layer_1-2" data-name="Layer 1"><rect class="cls-1" y="103.97" width="283.46" height="4.32"/><path class="cls-1" d="M7.08,133.55H5.21L0,118.38H2.49l3.66,11,3.65-11h2.54Zm7.51-15.17H17v15.17h-2.4Zm6.61,15.17V118.38H31.33v2.07H23.6v4.43h6.59v2.05H23.6v4.56h7.73v2.06Zm23.22,0L37.1,122.88v10.67H34.69V118.38H36.9L44.22,129V118.38h2.41v15.17Zm16.15,0-7.33-10.67v10.67h-2.4V118.38H53L60.37,129V118.38h2.4v15.17Zm15.52,0-1.09-3H68.74l-1.09,3H65.09l5.81-15.17h1.94l5.81,15.17Zm-4.17-11.74-2.47,6.74h4.88Zm14.43-3.43h2.41v15.17H86.35Zm16.35,15.17-7.33-10.67v10.67H93V118.38h2.2L102.5,129V118.38h2.4v15.17Zm10.62.13a7.36,7.36,0,0,1-5.61-2l1.6-1.51a5.4,5.4,0,0,0,4,1.44c2.07,0,3.28-.85,3.28-2.32a2,2,0,0,0-.63-1.58,2.84,2.84,0,0,0-1.73-.64l-1.87-.25a5.52,5.52,0,0,1-3-1.22,3.67,3.67,0,0,1-1.16-2.89c0-2.65,2-4.46,5.3-4.46a6.76,6.76,0,0,1,4.92,1.73l-1.53,1.45a4.78,4.78,0,0,0-3.46-1.18c-1.87,0-2.89,1-2.89,2.37a1.8,1.8,0,0,0,.6,1.41,3.68,3.68,0,0,0,1.78.7l1.81.26a5.31,5.31,0,0,1,3,1.13,3.87,3.87,0,0,1,1.29,3.11c0,2.79-2.38,4.45-5.7,4.45m14.41,0c-3.23,0-5.68-2.11-5.68-5.24V118.38h2.4v10a3.29,3.29,0,0,0,6.57,0v-10h2.41v10.06c0,3.13-2.48,5.24-5.7,5.24m18.41-.13-3.34-6.39h-3v6.39h-2.4V118.38h6.15c3,0,4.92,1.85,4.92,4.43a4,4,0,0,1-3.16,4l3.65,6.71Zm-2.78-13.1h-3.57v4.75h3.57c1.6,0,2.69-.87,2.69-2.37a2.38,2.38,0,0,0-2.69-2.38m17.77,13.1-1.09-3h-6.26l-1.09,3h-2.56l5.81-15.17h1.94l5.81,15.17ZM157,121.81l-2.47,6.74h4.88Zm18.75,11.74-7.32-10.67v10.67H166V118.38h2.21L175.51,129V118.38h2.41v15.17Zm11.54.13a5.86,5.86,0,0,1-4.17-1.62c-1.56-1.49-1.53-3.17-1.53-6.09s0-4.61,1.53-6.1a6.28,6.28,0,0,1,8.6.17l-1.61,1.56a3.64,3.64,0,0,0-2.82-1.28,3.26,3.26,0,0,0-2.34.91c-.78.81-.94,1.69-.94,4.74s.16,3.92.94,4.73a3.26,3.26,0,0,0,2.34.91,3.66,3.66,0,0,0,2.82-1.27l1.61,1.55a6,6,0,0,1-4.43,1.79m7.72-.13V118.38h10.14v2.07h-7.73v4.43H204v2.05h-6.59v4.56h7.73v2.06Zm28.33-1.62a6.19,6.19,0,0,1-8.49.13c-1.55-1.49-1.53-3.17-1.53-6.09s0-4.61,1.53-6.1a5.84,5.84,0,0,1,4.17-1.62,6.13,6.13,0,0,1,4.79,2l-1.63,1.56a4.08,4.08,0,0,0-3.16-1.49,3.29,3.29,0,0,0-2.36.94c-.78.81-.94,1.66-.94,4.71s.16,3.92.94,4.73a3.31,3.31,0,0,0,2.36.91,3.36,3.36,0,0,0,2.54-1.06,3.41,3.41,0,0,0,.78-2.41v-.83H219v-2h5.72v2.28c0,2-.36,3.24-1.4,4.3M237,133.55l-3.34-6.39h-3v6.39h-2.4V118.38h6.14c3,0,4.92,1.85,4.92,4.43a4,4,0,0,1-3.16,4l3.65,6.71Zm-2.78-13.1H230.6v4.75h3.57c1.6,0,2.69-.87,2.69-2.37a2.38,2.38,0,0,0-2.69-2.38m18,11.61a5.85,5.85,0,0,1-4.19,1.62,5.77,5.77,0,0,1-4.16-1.62c-1.56-1.49-1.54-3.17-1.54-6.09s0-4.61,1.54-6.1a5.82,5.82,0,0,1,4.16-1.62,5.89,5.89,0,0,1,4.19,1.62c1.56,1.49,1.51,3.18,1.51,6.1s.05,4.6-1.51,6.09m-1.83-10.8a3.43,3.43,0,0,0-4.72,0c-.78.81-.93,1.66-.93,4.71s.15,3.9.93,4.71a3.46,3.46,0,0,0,4.72,0c.78-.81.94-1.67.94-4.71s-.16-3.9-.94-4.71m12.38,12.42c-3.23,0-5.68-2.11-5.68-5.24V118.38h2.41v10a3.29,3.29,0,0,0,6.57,0v-10h2.4v10.06c0,3.13-2.47,5.24-5.7,5.24m15.68-6.09h-3.61v6h-2.4V118.38h6c3.09,0,5.07,2,5.07,4.6s-2,4.61-5.07,4.61m-.14-7.14h-3.47v5h3.47c1.67,0,2.81-.92,2.81-2.52a2.5,2.5,0,0,0-2.81-2.53"/><path class="cls-1" d="M4.53,90.81Q.25,86.69.26,79.1h7.4A9.58,9.58,0,0,0,10,86a8.6,8.6,0,0,0,6.56,2.51,8.59,8.59,0,0,0,5.63-1.64,6.55,6.55,0,0,0,.51-8.78A15.2,15.2,0,0,0,17.5,75l-7.34-3a14.12,14.12,0,0,1-6.43-4.67,12,12,0,0,1-2.19-7.3,11.49,11.49,0,0,1,1.84-6.43,12,12,0,0,1,5.11-4.38A17.34,17.34,0,0,1,16,47.7a17,17,0,0,1,7.82,1.73,12.35,12.35,0,0,1,5.21,5,14.59,14.59,0,0,1,1.84,7.4h-7.4a7.86,7.86,0,0,0-2-5.76,7.68,7.68,0,0,0-5.72-2,7.38,7.38,0,0,0-4.92,1.51A5.12,5.12,0,0,0,9,59.6a5.39,5.39,0,0,0,1.73,4,18.19,18.19,0,0,0,5.73,3.28l6.63,2.7a13.92,13.92,0,0,1,6.37,4.8A13.07,13.07,0,0,1,31.59,82a12.38,12.38,0,0,1-1.87,6.76,12.23,12.23,0,0,1-5.24,4.56,17.88,17.88,0,0,1-7.82,1.61Q8.82,94.92,4.53,90.81Z"/><path class="cls-1" d="M64.34,81.15H42.08a7.14,7.14,0,0,0,2.31,5.44,8.92,8.92,0,0,0,6,1.9,9,9,0,0,0,4.18-.84,5.78,5.78,0,0,0,2.51-2.57h7.08a10.25,10.25,0,0,1-4.54,6.85,15.73,15.73,0,0,1-9.23,2.67q-7.08,0-11.2-4.24c-2.74-2.84-4.11-6.67-4.11-11.52A17.76,17.76,0,0,1,37,70.51,13.16,13.16,0,0,1,42.27,65a15.74,15.74,0,0,1,7.91-1.94,15.25,15.25,0,0,1,7.5,1.81,12.81,12.81,0,0,1,5,5,14.93,14.93,0,0,1,1.8,7.4C64.53,78.07,64.47,79.35,64.34,81.15Zm-6.69-5.34a7.26,7.26,0,0,0-2-5.34,7.79,7.79,0,0,0-5.57-1.86,8.13,8.13,0,0,0-5.79,2,7,7,0,0,0-2.18,5.21Z"/><path class="cls-1" d="M97.6,81.15H75.34a7.15,7.15,0,0,0,2.32,5.44,8.87,8.87,0,0,0,6,1.9,9.07,9.07,0,0,0,4.19-.84,5.76,5.76,0,0,0,2.5-2.57h7.08a10.23,10.23,0,0,1-4.53,6.85A15.76,15.76,0,0,1,83.7,94.6q-7.08,0-11.19-4.24c-2.75-2.84-4.12-6.67-4.12-11.52a17.65,17.65,0,0,1,1.87-8.33A13.13,13.13,0,0,1,75.53,65a15.78,15.78,0,0,1,7.92-1.94,15.18,15.18,0,0,1,7.49,1.81,12.74,12.74,0,0,1,5,5,14.93,14.93,0,0,1,1.8,7.4C97.79,78.07,97.73,79.35,97.6,81.15Zm-6.69-5.34a7.22,7.22,0,0,0-2-5.34,7.77,7.77,0,0,0-5.56-1.86,8.1,8.1,0,0,0-5.79,2,7,7,0,0,0-2.19,5.21Z"/><path class="cls-1" d="M107.09,93.25a10.91,10.91,0,0,1-4.5-3.6,8.57,8.57,0,0,1-1.58-5h7a3.71,3.71,0,0,0,1.71,3.15A7.35,7.35,0,0,0,114.14,89a4.8,4.8,0,0,0,3.15-1,3.19,3.19,0,0,0,1.16-2.58,2.88,2.88,0,0,0-2.26-3.15l-7.72-2.12a8.84,8.84,0,0,1-4.85-3.06A8.34,8.34,0,0,1,102,71.89a7.54,7.54,0,0,1,1.44-4.47,9.78,9.78,0,0,1,4.06-3.19,14.68,14.68,0,0,1,6-1.16q5.73,0,8.79,2.58a8.41,8.41,0,0,1,3,6.75h-6.88a3.45,3.45,0,0,0-1.39-2.92,6.13,6.13,0,0,0-3.82-1.07,5.18,5.18,0,0,0-3.09.87,2.62,2.62,0,0,0-1.23,2.22,3.16,3.16,0,0,0,.68,2.06,3.45,3.45,0,0,0,1.9,1.16l7.14,2.06a10.51,10.51,0,0,1,5,3.06,7.2,7.2,0,0,1,1.93,5,8.91,8.91,0,0,1-3.12,7.08q-3.12,2.7-8.72,2.7A15.72,15.72,0,0,1,107.09,93.25Z"/><path class="cls-1" d="M135.85,92.54a13.17,13.17,0,0,1-5-5.63,18.45,18.45,0,0,1-1.7-8.07,17.54,17.54,0,0,1,1.8-8,13.87,13.87,0,0,1,5.18-5.66,14.73,14.73,0,0,1,7.94-2.1,12,12,0,0,1,5.54,1.29,9.4,9.4,0,0,1,3.86,3.54V63.85h7v30h-7v-4a9.11,9.11,0,0,1-4,3.5,12.71,12.71,0,0,1-5.57,1.32A14.82,14.82,0,0,1,135.85,92.54Zm15.64-6.88a11.34,11.34,0,0,0,0-13.64,8.18,8.18,0,0,0-6.6-2.7,8.08,8.08,0,0,0-6.4,2.67,10,10,0,0,0-2.35,6.85,10,10,0,0,0,2.35,6.85,8.08,8.08,0,0,0,6.4,2.67A8.18,8.18,0,0,0,151.49,85.66Z"/><path class="cls-1" d="M166.89,63.85h7V68a8.26,8.26,0,0,1,3.28-3.57,9.52,9.52,0,0,1,5.08-1.39c4.76,0,7.91,1.79,9.46,5.34a8.9,8.9,0,0,1,3.6-3.82,10.62,10.62,0,0,1,5.6-1.52q10.81,0,10.81,11.78v19h-7V76.2c0-2.44-.48-4.25-1.42-5.4a5.07,5.07,0,0,0-4.18-1.74,5.73,5.73,0,0,0-4.63,2c-1.12,1.31-1.68,3.61-1.68,6.92V93.83h-7V76.14q0-3.67-1.35-5.38a5,5,0,0,0-4.12-1.7,5.93,5.93,0,0,0-4.73,2c-1.14,1.31-1.7,3.61-1.7,6.92V93.83h-7Z"/><polygon class="cls-1" points="272.62 26.06 246.66 41.05 246.66 11.07 272.62 26.06"/><polygon class="cls-1" points="248.1 43.55 274.06 58.54 274.06 28.56 248.1 43.55"/><polygon class="cls-1" points="208.22 20.53 243.78 41.05 243.78 0 208.22 20.53"/><polygon class="cls-1" points="283.46 67.29 237.5 40.75 237.5 93.83 283.46 67.29"/></g></g></svg>